<svg width="146" height="94" viewBox="0 0 146 94" fill="none" xmlns="http://www.w3.org/2000/svg">
<g clip-path="url(#clip0_265_135)">
<g filter="url(#filter0_d_265_135)">
<path d="M31.4084 35.9772L21.2252 35.671L13.4345 35.8547C13.0664 36.7121 12.6574 37.794 12.2076 39.1003C11.7986 40.4067 11.2465 41.9376 10.5513 43.6932C9.85603 45.4078 9.05855 47.1428 8.15882 48.8984C6.1549 52.7767 4.23277 54.716 2.39244 54.716C0.797479 54.716 0 53.8178 0 52.0215C0 50.8784 1.12465 49.2046 3.37395 47C4.31456 46.1427 5.37788 44.7342 6.56387 42.7746C7.79076 40.815 8.85406 38.5492 9.75378 35.9772H7.54538C6.89103 35.9772 6.31849 35.7935 5.82773 35.4261C5.37788 35.0178 5.15294 34.4666 5.15294 33.7727C5.15294 33.0787 5.39832 32.507 5.88908 32.058C6.37983 31.609 6.91149 31.3844 7.48403 31.3844L11.7782 31.4456C15.2543 23.7297 18.5464 18.402 21.6546 15.4626C20.0597 15.4626 17.6468 15.6259 14.416 15.9525C11.1851 16.2383 9.22212 16.3811 8.52689 16.3811C7.87254 16.3811 7.3 16.1974 6.80924 15.83C6.31849 15.4217 6.07311 14.8706 6.07311 14.1766C6.07311 13.4417 6.31849 12.8497 6.80924 12.4007C7.3409 11.9516 7.91345 11.7271 8.52689 11.7271L21.9 12.0945L36.4387 11.7271C37.1748 11.7271 37.7678 11.9516 38.2176 12.4007C38.6675 12.8497 38.8924 13.4213 38.8924 14.1153C38.8924 15.6259 38.054 16.3811 36.3773 16.3811H34.905C34.905 22.9132 35.1708 28.8124 35.7025 34.0788C36.2342 39.3453 36.7658 43.4073 37.2975 46.2652C37.8292 49.123 38.095 50.9396 38.095 51.7153C38.095 52.4502 37.8496 53.1442 37.3588 53.7974C36.909 54.4098 36.275 54.716 35.4571 54.716C34.6801 54.716 34.0053 54.4301 33.4328 53.8586C32.8603 53.2871 32.5536 52.4705 32.5126 51.4091L31.4084 35.9772ZM30.3042 15.6463L28.7706 15.585C24.1494 16.0341 19.6506 21.3414 15.2748 31.5069C18.7918 31.5885 20.9594 31.6293 21.7773 31.6293C22.5952 31.6293 25.7034 31.5477 31.1017 31.3844C30.57 22.3621 30.3042 17.116 30.3042 15.6463ZM46.2973 49.8782C46.2973 44.7342 46.1952 40.223 45.9906 36.3446C45.7862 32.4663 45.6839 30.18 45.6839 29.486C45.6839 28.792 45.9498 28.1184 46.4814 27.4652C47.054 26.7712 47.7288 26.4241 48.5057 26.4241C49.2828 26.4241 49.9167 26.7507 50.4074 27.4039C50.8982 28.0163 51.1436 28.9349 51.1436 30.1596C51.1436 31.3435 51.0005 33.3644 50.7141 36.2222C50.428 39.0391 50.2847 41.9785 50.2847 45.0404C50.2847 46.2652 50.5301 47.449 51.0209 48.5922C51.5526 49.6945 51.8183 50.7152 51.8183 51.6541C51.8183 52.5523 51.5526 53.2871 51.0209 53.8586C50.5301 54.4301 49.8349 54.716 48.9352 54.716C48.0763 54.716 47.4221 54.2261 46.9721 53.2463C46.5223 52.2665 46.2973 51.1438 46.2973 49.8782ZM48.2604 19.5042C47.3607 19.5042 46.645 19.2593 46.1133 18.7694C45.5818 18.2795 45.3158 17.565 45.3158 16.6261C45.3158 15.6871 45.6431 14.891 46.2973 14.2378C46.9517 13.5438 47.7288 13.1968 48.6284 13.1968C49.5282 13.1968 50.2439 13.4621 50.7755 13.9928C51.3481 14.4828 51.6343 15.1972 51.6343 16.1362C51.6343 17.0751 51.2868 17.8712 50.5915 18.5244C49.9372 19.1777 49.1601 19.5042 48.2604 19.5042ZM65.5112 39.9577L66.002 51.0417C66.002 52.144 65.7156 53.0422 65.1432 53.7362C64.6114 54.3894 63.9571 54.716 63.1801 54.716C62.403 54.716 61.7692 54.4098 61.2784 53.7974C60.7877 53.1442 60.5423 52.2665 60.5423 51.1642C60.5423 50.0619 60.6444 48.4901 60.849 46.4489C61.2579 42.3663 61.4625 38.9166 61.4625 36.0997C61.4625 34.8749 61.0739 33.7114 60.2969 32.6091C59.5608 31.466 59.1927 30.4455 59.1927 29.5472C59.1927 28.649 59.4995 27.9142 60.1129 27.3427C60.7263 26.7303 61.4215 26.4241 62.1986 26.4241C64.2434 26.4241 65.2658 28.0367 65.2658 31.2619V33.6502C66.4927 31.4456 67.965 29.6901 69.6826 28.3837C71.4003 27.0774 72.9747 26.4241 74.4062 26.4241C75.8375 26.4241 76.9213 26.7915 77.6574 27.5264C78.4344 28.2204 78.823 29.1595 78.823 30.3433C78.823 31.5272 78.5367 32.5275 77.9642 33.344C77.3915 34.1197 76.7781 34.5075 76.1238 34.5075C75.4694 34.5075 74.9583 34.3442 74.5902 34.0176C74.2629 33.6502 74.0176 33.2827 73.8541 32.9153C73.6904 32.507 73.3837 32.1396 72.9339 31.813C72.4839 31.4456 71.9114 31.2619 71.2163 31.2619C70.0302 31.2619 68.8442 32.0376 67.6583 33.5889C66.4722 35.1402 65.7566 37.2632 65.5112 39.9577ZM103.155 46.1427C103.441 46.8775 104.034 47.8777 104.934 49.1433C105.875 50.3681 106.345 51.3683 106.345 52.144C106.345 52.9197 106.141 53.5525 105.732 54.0424C105.323 54.4914 104.77 54.716 104.075 54.716C102.399 54.716 100.906 52.981 99.5972 49.5108L99.1064 48.1635C97.0207 52.5318 93.8921 54.716 89.7207 54.716C87.635 54.716 85.8969 54.0627 84.5064 52.7564C83.1568 51.4091 82.482 49.7353 82.482 47.7349C82.482 44.6321 83.5453 41.9582 85.6719 39.7127C87.7986 37.4673 90.5795 36.263 94.0148 36.0997C93.1969 34.6709 92.2768 33.6093 91.2543 32.9153C90.2728 32.1805 89.373 31.7518 88.5551 31.6293C87.7373 31.5069 86.9602 31.4456 86.2241 31.4456C85.5289 31.4047 84.9768 31.2415 84.5677 30.9557C84.1587 30.6699 83.9543 30.1187 83.9543 29.3023C83.9543 28.445 84.2814 27.751 84.9358 27.2202C85.631 26.6894 86.449 26.4241 87.3896 26.4241C90.0478 26.4241 92.6652 27.751 95.2417 30.4046C97.8182 33.0582 100.068 37.2223 101.99 42.8971L103.155 46.1427ZM92.4812 39.3453C91.0089 39.3453 89.6797 39.8352 88.4938 40.815C87.3486 41.7948 86.7761 43.0604 86.7761 44.6117C86.7761 46.163 87.2873 47.4696 88.3098 48.531C89.373 49.5516 90.6409 50.0619 92.1131 50.0619C93.5854 50.0619 94.8532 49.5516 95.9165 48.531C96.9797 47.4696 97.5114 46.2243 97.5114 44.7955C97.5114 43.7748 97.3274 42.8358 96.9593 41.9785C96.5913 41.0803 96.3663 40.5292 96.2846 40.3251C95.2213 39.6718 93.9535 39.3453 92.4812 39.3453ZM102.419 16.0137C102.419 17.3201 101.744 18.8103 100.395 20.4841C99.0451 22.1171 97.5932 22.9336 96.0392 22.9336C95.0577 22.9336 93.8921 22.4845 92.5425 21.5863C91.1929 20.6474 90.1092 20.1779 89.2913 20.1779C88.4734 20.1779 87.819 20.3207 87.3282 20.6065C86.8375 20.8924 86.5308 21.1985 86.4081 21.5251C86.081 22.464 85.7333 22.9336 85.3652 22.9336C84.67 22.9336 84.3224 22.5049 84.3224 21.6476C84.3224 20.7494 84.8131 19.7901 85.7946 18.7694C86.8171 17.708 88.0848 17.1772 89.598 17.1772C91.152 17.1772 92.747 17.5038 94.3829 18.157C96.0188 18.7694 97.1843 19.0756 97.8795 19.0756C98.6156 19.0756 99.2087 18.749 99.6585 18.0958C100.108 17.4018 100.456 16.7282 100.701 16.0749C100.947 15.381 101.213 15.0339 101.499 15.0339C102.112 15.0339 102.419 15.3604 102.419 16.0137ZM115.853 33.9564C114.053 35.7526 113.153 37.9572 113.153 40.57C113.153 43.1829 114.053 45.4078 115.853 47.245C117.693 49.0412 119.901 49.9394 122.478 49.9394C125.095 49.9394 127.283 49.0412 129.042 47.245C130.8 45.4078 131.679 43.1829 131.679 40.57C131.679 37.9572 130.8 35.7526 129.042 33.9564C127.283 32.1601 125.095 31.2619 122.478 31.2619C119.901 31.2619 117.693 32.1601 115.853 33.9564ZM118.306 54.716C115.689 54.716 113.501 53.6953 111.742 51.6541C109.984 49.6129 109.105 47.0612 109.105 43.9994C109.105 40.8966 110.066 37.9165 111.988 35.0586C113.91 32.1601 116.159 29.9963 118.736 28.5674C121.312 27.1386 123.909 26.4241 126.526 26.4241C129.144 26.4241 131.332 27.4448 133.09 29.486C134.849 31.5272 135.728 34.0992 135.728 37.202C135.728 40.2639 134.767 43.2441 132.845 46.1427C130.923 49.0005 128.674 51.1438 126.097 52.5727C123.521 54.0015 120.924 54.716 118.306 54.716Z" fill="url(#paint0_linear_265_135)" shape-rendering="crispEdges"/>
</g>
<g filter="url(#filter1_d_265_135)">
<path d="M81.6495 62.9831C81.4961 62.9831 79.5791 62.8606 75.8984 62.6156C75.8984 63.0137 75.8371 64.5293 75.7144 67.1625C75.5917 69.7958 75.5303 71.7554 75.5303 73.0414C75.5303 74.2967 75.8064 75.3531 76.3585 76.2104C76.9413 77.0371 77.2327 77.7873 77.2327 78.4609C77.2327 79.1345 77.0026 79.701 76.5425 80.1602C76.0824 80.5889 75.561 80.8032 74.9782 80.8032C73.4446 80.8032 72.6778 79.5938 72.6778 77.1749L72.4938 67.8515C72.4938 65.9531 72.4478 64.2537 72.3558 62.7534H71.2516C70.8222 62.7534 70.4694 62.6309 70.1934 62.386C69.9173 62.1104 69.7793 61.743 69.7793 61.2837C69.7793 60.8244 69.9173 60.4723 70.1934 60.2274C70.4694 59.9518 70.8222 59.814 71.2516 59.814H72.2177C72.1564 58.2218 72.1257 57.0124 72.1257 56.1857C72.1257 55.3283 72.3251 54.6547 72.7238 54.1648C73.1532 53.6443 73.6593 53.384 74.2421 53.384C74.8249 53.384 75.3003 53.629 75.6684 54.1189C76.0364 54.5782 76.2205 55.3436 76.2205 56.4153C76.2205 57.487 76.1745 58.6658 76.0824 59.9518L81.6495 59.5844C82.8457 59.5844 83.4438 60.1508 83.4438 61.2837C83.4438 62.4166 82.8457 62.9831 81.6495 62.9831ZM88.5098 65.2335C87.1602 66.5808 86.4854 68.2342 86.4854 70.1938C86.4854 72.1534 87.1602 73.8221 88.5098 75.2C89.89 76.5472 91.5463 77.2208 93.4787 77.2208C95.4417 77.2208 97.0827 76.5472 98.4016 75.2C99.7205 73.8221 100.38 72.1534 100.38 70.1938C100.38 68.2342 99.7205 66.5808 98.4016 65.2335C97.0827 63.8863 95.4417 63.2127 93.4787 63.2127C91.5463 63.2127 89.89 63.8863 88.5098 65.2335ZM90.3501 80.8032C88.3871 80.8032 86.7461 80.0378 85.4272 78.5068C84.1083 76.9759 83.4489 75.0622 83.4489 72.7658C83.4489 70.4388 84.1696 68.2036 85.6112 66.0603C87.0528 63.8863 88.7398 62.2635 90.6722 61.1919C92.6045 60.1202 94.5522 59.5844 96.5152 59.5844C98.4783 59.5844 100.119 60.3498 101.438 61.8808C102.757 63.4117 103.417 65.3407 103.417 67.6677C103.417 69.9642 102.696 72.1993 101.254 74.3733C99.8125 76.5166 98.1255 78.1241 96.1932 79.1958C94.2608 80.2674 92.3131 80.8032 90.3501 80.8032ZM120.871 72.6739L120.411 62.3401C120.411 61.5133 120.61 60.855 121.009 60.3651C121.438 59.8446 121.944 59.5844 122.527 59.5844C123.11 59.5844 123.585 59.8293 123.953 60.3192C124.321 60.7785 124.506 61.4215 124.506 62.2482C124.506 63.0443 124.414 64.1772 124.229 65.6469C123.861 68.5863 123.677 71.2195 123.677 73.5466C123.677 74.4651 123.969 75.3531 124.552 76.2104C125.165 77.0371 125.472 77.7873 125.472 78.4609C125.472 79.1345 125.242 79.701 124.782 80.1602C124.321 80.5889 123.8 80.8032 123.217 80.8032C121.684 80.8032 120.917 79.5938 120.917 77.1749C119.475 79.5938 117.666 80.8032 115.488 80.8032C113.74 80.8032 112.344 80.1756 111.301 78.9202C110.289 77.6648 109.583 76.1339 109.185 74.3274L107.436 66.4277C107.252 65.5397 106.838 64.759 106.194 64.0853C105.581 63.3811 105.274 62.6769 105.274 61.9726C105.274 61.2684 105.519 60.7019 106.01 60.2733C106.501 59.814 107.084 59.5844 107.758 59.5844C109.292 59.5844 110.289 60.7938 110.749 63.2127L112.497 72.8117C113.08 75.8736 114.537 77.4046 116.868 77.4046C118.003 77.4046 118.939 76.9606 119.675 76.0726C120.411 75.1541 120.81 74.0212 120.871 72.6739ZM135.043 69.7345L135.411 78.0475C135.411 78.8743 135.196 79.5479 134.766 80.0684C134.368 80.5583 133.877 80.8032 133.294 80.8032C132.711 80.8032 132.236 80.5736 131.868 80.1143C131.5 79.6244 131.316 78.9661 131.316 78.1394C131.316 77.3127 131.393 76.1339 131.546 74.6029C131.853 71.541 132.006 68.9537 132.006 66.841C132.006 65.9225 131.715 65.0498 131.132 64.2231C130.58 63.3658 130.304 62.6003 130.304 61.9267C130.304 61.2531 130.534 60.7019 130.994 60.2733C131.454 59.814 131.975 59.5844 132.558 59.5844C134.092 59.5844 134.858 60.7938 134.858 63.2127V65.0039C135.779 63.3505 136.883 62.0339 138.171 61.0541C139.459 60.0743 140.64 59.5844 141.714 59.5844C142.787 59.5844 143.6 59.8599 144.152 60.4111C144.735 60.9316 145.026 61.6358 145.026 62.5238C145.026 63.4117 144.812 64.1619 144.382 64.7743C143.953 65.356 143.493 65.6469 143.002 65.6469C142.511 65.6469 142.128 65.5244 141.852 65.2795C141.606 65.0039 141.422 64.7283 141.3 64.4528C141.177 64.1466 140.947 63.871 140.61 63.6261C140.272 63.3505 139.843 63.2127 139.321 63.2127C138.432 63.2127 137.542 63.7945 136.653 64.958C135.763 66.1215 135.227 67.7137 135.043 69.7345Z" fill="url(#paint1_linear_265_135)" shape-rendering="crispEdges"/>
</g>
</g>
<defs>
<filter id="filter0_d_265_135" x="-4" y="11.7271" width="143.729" height="50.9889" filterUnits="userSpaceOnUse" color-interpolation-filters="sRGB">
<feFlood flood-opacity="0" result="BackgroundImageFix"/>
<feColorMatrix in="SourceAlpha" type="matrix" values="0 0 0 0 0 0 0 0 0 0 0 0 0 0 0 0 0 0 127 0" result="hardAlpha"/>
<feOffset dy="4"/>
<feGaussianBlur stdDeviation="2"/>
<feComposite in2="hardAlpha" operator="out"/>
<feColorMatrix type="matrix" values="0 0 0 0 0 0 0 0 0 0 0 0 0 0 0 0 0 0 0.25 0"/>
<feBlend mode="normal" in2="BackgroundImageFix" result="effect1_dropShadow_265_135"/>
<feBlend mode="normal" in="SourceGraphic" in2="effect1_dropShadow_265_135" result="shape"/>
</filter>
<filter id="filter1_d_265_135" x="65.7793" y="53.384" width="83.2471" height="35.4192" filterUnits="userSpaceOnUse" color-interpolation-filters="sRGB">
<feFlood flood-opacity="0" result="BackgroundImageFix"/>
<feColorMatrix in="SourceAlpha" type="matrix" values="0 0 0 0 0 0 0 0 0 0 0 0 0 0 0 0 0 0 127 0" result="hardAlpha"/>
<feOffset dy="4"/>
<feGaussianBlur stdDeviation="2"/>
<feComposite in2="hardAlpha" operator="out"/>
<feColorMatrix type="matrix" values="0 0 0 0 0 0 0 0 0 0 0 0 0 0 0 0 0 0 0.25 0"/>
<feBlend mode="normal" in2="BackgroundImageFix" result="effect1_dropShadow_265_135"/>
<feBlend mode="normal" in="SourceGraphic" in2="effect1_dropShadow_265_135" result="shape"/>
</filter>
<linearGradient id="paint0_linear_265_135" x1="134.357" y1="31.4285" x2="-15.4465" y2="30.8759" gradientUnits="userSpaceOnUse">
<stop stop-color="#2F795F"/>
<stop offset="0.640625" stop-color="#ACBC55" stop-opacity="0.87"/>
</linearGradient>
<linearGradient id="paint1_linear_265_135" x1="144.281" y1="63.3759" x2="59.9953" y2="63.1427" gradientUnits="userSpaceOnUse">
<stop stop-color="#2F795F"/>
<stop offset="0.640625" stop-color="#ACBC55" stop-opacity="0.87"/>
</linearGradient>
<clipPath id="clip0_265_135">
<rect width="146" height="94" fill="white"/>
</clipPath>
</defs>
</svg>
