<svg width="50" height="33.5" viewBox="0 0 40 26" fill="none" xmlns="http://www.w3.org/2000/svg">
<g clip-path="url(#clip0_265_145)">
<path d="M8.60504 9.95114L5.81513 9.86645L3.68067 9.91727C3.57983 10.1544 3.46779 10.4537 3.34454 10.815C3.23249 11.1763 3.08123 11.5998 2.89076 12.0853C2.70028 12.5596 2.48179 13.0395 2.23529 13.5251C1.68627 14.5978 1.15966 15.1342 0.655462 15.1342C0.218487 15.1342 0 14.8858 0 14.3889C0 14.0727 0.308123 13.6098 0.92437 13C1.18207 12.7629 1.47339 12.3733 1.79832 11.8313C2.13445 11.2893 2.42577 10.6625 2.67227 9.95114H2.06723C1.88795 9.95114 1.73109 9.90033 1.59664 9.7987C1.47339 9.68577 1.41176 9.53332 1.41176 9.34137C1.41176 9.14942 1.47899 8.9913 1.61345 8.8671C1.7479 8.74291 1.89356 8.68079 2.05042 8.68079L3.22689 8.69772C4.17927 6.56352 5.08122 5.08991 5.93277 4.27688C5.4958 4.27688 4.83475 4.32206 3.94958 4.41238C3.06442 4.49144 2.52661 4.53095 2.33613 4.53095C2.15686 4.53095 2 4.48013 1.86555 4.37851C1.73109 4.26557 1.66387 4.11314 1.66387 3.92118C1.66387 3.71792 1.73109 3.55418 1.86555 3.42997C2.01121 3.30576 2.16807 3.24365 2.33613 3.24365L6 3.34528L9.98319 3.24365C10.1849 3.24365 10.3474 3.30576 10.4706 3.42997C10.5938 3.55418 10.6555 3.71227 10.6555 3.90424C10.6555 4.32206 10.4258 4.53095 9.96639 4.53095H9.56303C9.56303 6.33769 9.63584 7.96939 9.78151 9.42606C9.92719 10.8827 10.0728 12.0063 10.2185 12.7967C10.3642 13.5872 10.437 14.0897 10.437 14.3042C10.437 14.5075 10.3697 14.6994 10.2353 14.8801C10.1121 15.0495 9.93836 15.1342 9.71429 15.1342C9.50139 15.1342 9.31651 15.0551 9.15966 14.8971C9.00282 14.739 8.91878 14.5131 8.90756 14.2195L8.60504 9.95114ZM8.30252 4.32769L7.88235 4.31075C6.61626 4.43495 5.38374 5.90294 4.18487 8.71466C5.14845 8.73723 5.74231 8.74854 5.96639 8.74854C6.19046 8.74854 7.04202 8.72597 8.52101 8.68079C8.37534 6.18525 8.30252 4.73421 8.30252 4.32769ZM12.6842 13.7961C12.6842 12.3733 12.6562 11.1255 12.6002 10.0528C12.5442 8.98004 12.5161 8.34766 12.5161 8.1557C12.5161 7.96375 12.589 7.77743 12.7346 7.59675C12.8915 7.4048 13.0764 7.3088 13.2892 7.3088C13.5021 7.3088 13.6758 7.39912 13.8103 7.57981C13.9447 7.74919 14.0119 8.00326 14.0119 8.34202C14.0119 8.66948 13.9727 9.22844 13.8943 10.0189C13.8159 10.798 13.7766 11.6111 13.7766 12.458C13.7766 12.7967 13.8439 13.1242 13.9783 13.4404C14.124 13.7453 14.1968 14.0276 14.1968 14.2873C14.1968 14.5357 14.124 14.739 13.9783 14.8971C13.8439 15.0551 13.6534 15.1342 13.4069 15.1342C13.1716 15.1342 12.9924 14.9987 12.8691 14.7277C12.7458 14.4567 12.6842 14.1462 12.6842 13.7961ZM13.222 5.39479C12.9755 5.39479 12.7795 5.32704 12.6338 5.19154C12.4882 5.05603 12.4153 4.8584 12.4153 4.5987C12.4153 4.339 12.505 4.11879 12.6842 3.93811C12.8635 3.74615 13.0764 3.65017 13.3229 3.65017C13.5694 3.65017 13.7655 3.72356 13.9111 3.87036C14.068 4.00587 14.1464 4.20348 14.1464 4.4632C14.1464 4.7229 14.0512 4.9431 13.8607 5.12378C13.6814 5.30447 13.4685 5.39479 13.222 5.39479ZM17.9483 11.0521L18.0827 14.1179C18.0827 14.4228 18.0043 14.6712 17.8474 14.8632C17.7018 15.0439 17.5225 15.1342 17.3096 15.1342C17.0967 15.1342 16.9231 15.0495 16.7886 14.8801C16.6542 14.6994 16.5869 14.4567 16.5869 14.1518C16.5869 13.8469 16.6149 13.4122 16.671 12.8476C16.783 11.7183 16.839 10.7642 16.839 9.98502C16.839 9.64626 16.7326 9.32443 16.5197 9.01955C16.318 8.70336 16.2172 8.42108 16.2172 8.17264C16.2172 7.9242 16.3012 7.72095 16.4693 7.56287C16.6374 7.39349 16.8278 7.3088 17.0407 7.3088C17.6009 7.3088 17.8811 7.75482 17.8811 8.64691V9.3075C18.2172 8.69772 18.6205 8.21215 19.0911 7.85082C19.5617 7.48949 19.9931 7.3088 20.3853 7.3088C20.7774 7.3088 21.0743 7.41043 21.276 7.61369C21.4889 7.80564 21.5953 8.06538 21.5953 8.39284C21.5953 8.72029 21.5169 8.99698 21.36 9.22281C21.2032 9.43737 21.0351 9.54463 20.8558 9.54463C20.6766 9.54463 20.5365 9.49945 20.4357 9.40912C20.346 9.3075 20.2788 9.20587 20.234 9.10424C20.1892 8.9913 20.1051 8.88968 19.9819 8.79935C19.8586 8.69772 19.7018 8.64691 19.5113 8.64691C19.1863 8.64691 18.8614 8.86147 18.5365 9.29056C18.2116 9.71964 18.0155 10.3068 17.9483 11.0521ZM28.2617 12.7629C28.3401 12.9661 28.5026 13.2428 28.7491 13.5928C29.0068 13.9316 29.1356 14.2082 29.1356 14.4228C29.1356 14.6374 29.0796 14.8124 28.9676 14.9479C28.8555 15.0721 28.7042 15.1342 28.5138 15.1342C28.0544 15.1342 27.6454 14.6543 27.2869 13.6945L27.1524 13.3218C26.581 14.5301 25.7239 15.1342 24.581 15.1342C24.0096 15.1342 23.5334 14.9535 23.1524 14.5922C22.7827 14.2195 22.5978 13.7566 22.5978 13.2033C22.5978 12.345 22.8891 11.6054 23.4718 10.9844C24.0544 10.3633 24.8163 10.0302 25.7575 9.98502C25.5334 9.58981 25.2813 9.29619 25.0012 9.10424C24.7323 8.90098 24.4858 8.78241 24.2617 8.74854C24.0376 8.71466 23.8247 8.69772 23.623 8.69772C23.4326 8.68642 23.2813 8.64128 23.1692 8.56222C23.0572 8.48316 23.0012 8.33072 23.0012 8.10489C23.0012 7.86776 23.0908 7.67581 23.2701 7.52899C23.4605 7.38218 23.6847 7.3088 23.9424 7.3088C24.6706 7.3088 25.3877 7.67581 26.0936 8.40978C26.7995 9.14375 27.4158 10.2955 27.9424 11.8652L28.2617 12.7629ZM25.3373 10.8827C24.934 10.8827 24.5698 11.0182 24.2449 11.2893C23.9311 11.5603 23.7743 11.9103 23.7743 12.3394C23.7743 12.7685 23.9143 13.1299 24.1945 13.4235C24.4858 13.7058 24.8331 13.8469 25.2365 13.8469C25.6398 13.8469 25.9872 13.7058 26.2785 13.4235C26.5698 13.1299 26.7155 12.7854 26.7155 12.3902C26.7155 12.1079 26.665 11.8482 26.5642 11.6111C26.4634 11.3626 26.4017 11.2102 26.3793 11.1537C26.088 10.9731 25.7407 10.8827 25.3373 10.8827ZM28.06 4.42932C28.06 4.79065 27.8751 5.20284 27.5054 5.6658C27.1356 6.1175 26.7379 6.34333 26.3121 6.34333C26.0432 6.34333 25.7239 6.21913 25.3541 5.97069C24.9844 5.71098 24.6874 5.58111 24.4634 5.58111C24.2393 5.58111 24.06 5.62062 23.9255 5.69968C23.7911 5.77874 23.7071 5.86343 23.6734 5.95375C23.5838 6.21345 23.4886 6.34333 23.3877 6.34333C23.1973 6.34333 23.102 6.22476 23.102 5.98763C23.102 5.73919 23.2365 5.47385 23.5054 5.19154C23.7855 4.89796 24.1328 4.75114 24.5474 4.75114C24.9732 4.75114 25.4101 4.84147 25.8583 5.02215C26.3065 5.19154 26.6258 5.27623 26.8163 5.27623C27.018 5.27623 27.1805 5.1859 27.3037 5.00522C27.4269 4.81326 27.5222 4.62695 27.5894 4.44626C27.6566 4.25431 27.7295 4.15831 27.8079 4.15831C27.976 4.15831 28.06 4.24863 28.06 4.42932ZM31.7404 9.39219C31.2474 9.88902 31.0009 10.4988 31.0009 11.2215C31.0009 11.9442 31.2474 12.5596 31.7404 13.0678C32.2446 13.5646 32.8497 13.813 33.5555 13.813C34.2726 13.813 34.8721 13.5646 35.3539 13.0678C35.8357 12.5596 36.0766 11.9442 36.0766 11.2215C36.0766 10.4988 35.8357 9.88902 35.3539 9.39219C34.8721 8.89535 34.2726 8.64691 33.5555 8.64691C32.8497 8.64691 32.2446 8.89535 31.7404 9.39219ZM32.4127 15.1342C31.6956 15.1342 31.0962 14.8519 30.6144 14.2873C30.1326 13.7227 29.8917 13.0169 29.8917 12.17C29.8917 11.3118 30.155 10.4875 30.6816 9.69707C31.2082 8.89535 31.8245 8.29684 32.5303 7.90163C33.2362 7.50642 33.9477 7.3088 34.6648 7.3088C35.3819 7.3088 35.9813 7.59112 36.4631 8.1557C36.9449 8.72029 37.1858 9.43169 37.1858 10.2899C37.1858 11.1368 36.9225 11.9611 36.3959 12.7629C35.8693 13.5533 35.253 14.1462 34.5471 14.5414C33.8413 14.9366 33.1298 15.1342 32.4127 15.1342Z" fill="#F9F9F9"/>
<path d="M22.3698 17.4209C22.3278 17.4209 21.8025 17.387 20.7941 17.3192C20.7941 17.4293 20.7773 17.8485 20.7437 18.5769C20.7101 19.3052 20.6933 19.8472 20.6933 20.2029C20.6933 20.5502 20.7689 20.8424 20.9202 21.0795C21.0799 21.3082 21.1597 21.5156 21.1597 21.702C21.1597 21.8883 21.0967 22.045 20.9706 22.172C20.8446 22.2906 20.7017 22.3498 20.542 22.3498C20.1219 22.3498 19.9118 22.0153 19.9118 21.3463L19.8614 18.7674C19.8614 18.2424 19.8488 17.7723 19.8236 17.3573H19.521C19.4034 17.3573 19.3068 17.3235 19.2311 17.2557C19.1555 17.1795 19.1177 17.0779 19.1177 16.9508C19.1177 16.8238 19.1555 16.7264 19.2311 16.6586C19.3068 16.5824 19.4034 16.5443 19.521 16.5443H19.7857C19.7689 16.1039 19.7605 15.7694 19.7605 15.5407C19.7605 15.3036 19.8152 15.1173 19.9244 14.9818C20.042 14.8378 20.1807 14.7658 20.3404 14.7658C20.5 14.7658 20.6303 14.8336 20.7311 14.9691C20.832 15.0961 20.8824 15.3078 20.8824 15.6042C20.8824 15.9007 20.8698 16.2267 20.8446 16.5824L22.3698 16.4808C22.6975 16.4808 22.8614 16.6375 22.8614 16.9508C22.8614 17.2642 22.6975 17.4209 22.3698 17.4209ZM24.2493 18.0433C23.8796 18.416 23.6947 18.8733 23.6947 19.4153C23.6947 19.9573 23.8796 20.4189 24.2493 20.8C24.6275 21.1726 25.0812 21.359 25.6107 21.359C26.1485 21.359 26.5981 21.1726 26.9594 20.8C27.3207 20.4189 27.5014 19.9573 27.5014 19.4153C27.5014 18.8733 27.3207 18.416 26.9594 18.0433C26.5981 17.6707 26.1485 17.4844 25.6107 17.4844C25.0812 17.4844 24.6275 17.6707 24.2493 18.0433ZM24.7535 22.3498C24.2157 22.3498 23.7661 22.1381 23.4048 21.7147C23.0434 21.2912 22.8628 20.7619 22.8628 20.1267C22.8628 19.4831 23.0602 18.8648 23.4552 18.272C23.8502 17.6707 24.3123 17.2218 24.8418 16.9254C25.3712 16.629 25.9048 16.4808 26.4426 16.4808C26.9804 16.4808 27.43 16.6925 27.7913 17.116C28.1527 17.5394 28.3333 18.073 28.3333 18.7166C28.3333 19.3518 28.1359 19.97 27.7409 20.5713C27.346 21.1642 26.8838 21.6088 26.3544 21.9052C25.8249 22.2016 25.2913 22.3498 24.7535 22.3498ZM33.1154 20.1013L32.9893 17.243C32.9893 17.0143 33.0439 16.8323 33.1532 16.6968C33.2708 16.5528 33.4095 16.4808 33.5691 16.4808C33.7288 16.4808 33.8591 16.5485 33.9599 16.684C34.0607 16.8111 34.1112 16.9889 34.1112 17.2176C34.1112 17.4378 34.086 17.7511 34.0355 18.1577C33.9347 18.9707 33.8843 19.699 33.8843 20.3427C33.8843 20.5968 33.9641 20.8424 34.1238 21.0795C34.2918 21.3082 34.3759 21.5156 34.3759 21.702C34.3759 21.8883 34.3128 22.045 34.1868 22.172C34.0607 22.2906 33.9179 22.3498 33.7582 22.3498C33.3381 22.3498 33.128 22.0153 33.128 21.3463C32.733 22.0153 32.2372 22.3498 31.6406 22.3498C31.1616 22.3498 30.7792 22.1762 30.4935 21.829C30.2162 21.4818 30.0229 21.0583 29.9137 20.5586L29.4347 18.3736C29.3843 18.128 29.2708 17.9121 29.0944 17.7257C28.9263 17.531 28.8423 17.3362 28.8423 17.1414C28.8423 16.9466 28.9095 16.7899 29.0439 16.6713C29.1784 16.5443 29.3381 16.4808 29.5229 16.4808C29.9431 16.4808 30.2162 16.8153 30.3423 17.4844L30.8212 20.1394C30.9809 20.9863 31.3801 21.4098 32.0187 21.4098C32.3296 21.4098 32.586 21.287 32.7876 21.0414C32.9893 20.7873 33.0986 20.474 33.1154 20.1013ZM36.998 19.2883L37.0989 21.5876C37.0989 21.8163 37.04 22.0026 36.9224 22.1466C36.8131 22.2821 36.6787 22.3498 36.519 22.3498C36.3594 22.3498 36.2291 22.2863 36.1283 22.1593C36.0274 22.0238 35.977 21.8417 35.977 21.613C35.977 21.3844 35.998 21.0583 36.04 20.6349C36.1241 19.788 36.1661 19.0723 36.1661 18.488C36.1661 18.2339 36.0862 17.9925 35.9266 17.7639C35.7753 17.5267 35.6997 17.315 35.6997 17.1287C35.6997 16.9424 35.7627 16.7899 35.8888 16.6713C36.0148 16.5443 36.1577 16.4808 36.3173 16.4808C36.7375 16.4808 36.9476 16.8153 36.9476 17.4844V17.9798C37.1997 17.5225 37.5022 17.1583 37.8552 16.8873C38.2081 16.6163 38.5316 16.4808 38.8257 16.4808C39.1199 16.4808 39.3426 16.557 39.4938 16.7095C39.6535 16.8534 39.7333 17.0482 39.7333 17.2938C39.7333 17.5394 39.6745 17.7469 39.5568 17.9163C39.4392 18.0772 39.3131 18.1577 39.1787 18.1577C39.0442 18.1577 38.9392 18.1238 38.8636 18.056C38.7963 17.9798 38.7459 17.9036 38.7123 17.8274C38.6787 17.7427 38.6157 17.6665 38.5232 17.5987C38.4308 17.5225 38.3131 17.4844 38.1703 17.4844C37.9266 17.4844 37.6829 17.6453 37.4392 17.9671C37.1955 18.2889 37.0484 18.7293 36.998 19.2883Z" fill="#F9F9F9"/>
</g>
<defs>
<clipPath id="clip0_265_145">
<rect width="40" height="26" fill="white"/>
</clipPath>
</defs>
</svg>
